<svg width="150" height="150" viewBox="0 0 150 150" fill="none" xmlns="http://www.w3.org/2000/svg">
    <style>
        path {
        fill: gray;
        }

        @media (prefers-color-scheme: light) {
        path {
        fill: #404040;
        }
        }

        @media (prefers-color-scheme: dark) {
        path {
        fill: white;
        }
        }
    </style>
    <path d="M44.43 10.1156C44.326 10.1734 44.1757 10.3929 44.0948 10.6008C44.0024 10.8088 43.829 11.2362 43.6788 11.5597C43.5401 11.8716 43.0778 12.969 42.6502 13.9856C41.3558 17.0816 39.2408 22.0491 39.0675 22.4187C38.9866 22.6036 38.7208 23.2274 38.4896 23.805C38.2469 24.371 37.9349 25.1219 37.7846 25.4569C37.6344 25.792 37.5073 26.0923 37.5073 26.1154C37.5073 26.1385 37.3801 26.4389 37.2299 26.7739C37.0797 27.1089 36.4325 28.6107 35.7968 30.1009C30.7232 42.0343 24.0432 57.2255 20.2871 65.3929C20.0791 65.8318 19.3279 67.4954 18.6113 69.0896C17.8948 70.6722 17.1436 72.3357 16.9355 72.7863C16.7275 73.2252 16.2305 74.3227 15.8376 75.2122C15.4331 76.1017 14.913 77.2454 14.6819 77.7537C14.4392 78.262 13.9191 79.4057 13.5262 80.2952C13.1217 81.1847 11.9313 83.807 10.868 86.129C8.30234 91.7434 8.46414 91.3853 7.57424 93.3491C7.14662 94.2964 6.62655 95.4401 6.41852 95.8906C6.21049 96.3296 5.93312 96.9534 5.78288 97.2769C5.64419 97.5888 5.37838 98.1664 5.20502 98.5476C0.663059 108.413 -0.0650421 110.088 0.0043008 110.458C0.0852009 110.92 0.443473 111.197 0.951988 111.197C1.35649 111.197 3.8875 110.389 8.61438 108.737C10.1746 108.194 12.6478 107.339 14.104 106.831C17.6867 105.583 29.267 101.551 32.1332 100.546C33.4045 100.107 35.7159 99.2985 37.2761 98.7556C40.4428 97.6697 42.2341 97.0343 43.8637 96.4682C45.0656 96.0408 50.8673 94.0192 54.6119 92.7253C56.1258 92.1939 57.062 91.8127 57.2238 91.6394C57.4665 91.3968 57.9403 90.1261 59.697 85.0893C60.1477 83.7839 60.6447 82.3861 60.7949 81.9702C61.1994 80.8728 61.7311 79.3594 62.3552 77.5226C62.6672 76.6331 63.1064 75.3624 63.3375 74.6924C65.2329 69.309 68.596 59.3742 69.4628 56.5554C69.613 56.0818 70.0753 54.5916 70.5029 53.2631C71.3004 50.7216 72.4445 47.048 72.6988 46.1585C72.7797 45.8697 73.0686 44.9339 73.3345 44.0791C73.6003 43.2242 73.8892 42.2769 73.9817 41.965C74.2821 40.9715 74.4555 40.3593 75.8192 35.877C76.5473 33.428 77.2639 31.0944 77.3795 30.6901C77.6799 29.7197 77.6684 29.5926 77.2986 29.1883C76.7323 28.5876 67.6483 22.6498 63.5109 20.166C61.315 18.8491 56.0565 15.9033 53.5139 14.5632C52.8205 14.1936 52.1964 13.8586 52.1271 13.8123C51.7688 13.5582 44.8923 10.0001 44.7652 10.0001C44.6843 10.0001 44.534 10.0579 44.43 10.1156Z"/>
    <path d="M143.313 30.6772C137.003 31.2895 136.263 31.3588 134.01 31.6014C128.427 32.179 123.631 32.8721 118.696 33.8079C113.796 34.732 110.225 35.4367 109.901 35.5407C109.208 35.7602 109.139 35.9335 108.919 38.1053C107.856 48.2943 106.584 61.3136 106.272 65.3569C106.18 66.5352 105.937 69.9546 105.637 74.2289C105.498 76.2044 105.117 82.4079 105.001 84.4526C104.943 85.6541 104.862 86.9595 104.828 87.3407C104.805 87.7219 104.747 88.6807 104.712 89.4778C104.678 90.2749 104.62 91.176 104.597 91.4995C104.562 91.8114 104.516 92.62 104.481 93.2901C104.365 95.5774 104.192 99.0084 104.134 99.9326C104.088 100.683 104.111 100.914 104.273 101.169C104.389 101.342 105.336 102.243 106.388 103.179C107.44 104.114 109.208 105.686 110.317 106.679C116.096 111.843 122.522 117.596 125.457 120.207C127.272 121.824 129.687 123.973 130.82 125.001C137.107 130.615 146.977 139.395 147.439 139.776C148.583 140.712 148.664 140.77 149.057 140.77C149.334 140.77 149.542 140.677 149.739 140.469C149.993 140.192 150.016 140.1 149.993 139.002C149.958 137.373 149.739 130.939 149.67 129.391C149.646 128.686 149.589 127.207 149.554 126.098C149.519 124.989 149.438 122.598 149.381 120.784C149.323 118.971 149.219 115.909 149.149 113.968C149.022 109.96 148.941 107.545 148.861 105.304C148.826 104.449 148.745 101.873 148.687 99.586C148.629 97.2987 148.548 94.9074 148.514 94.272C148.491 93.6366 148.433 91.95 148.398 90.5175C148.364 89.0851 148.306 87.3984 148.283 86.7631C148.26 86.1277 148.202 84.1292 148.167 82.3155C148.132 80.5018 148.075 78.6881 148.052 78.2722C148.028 77.8563 147.971 75.4188 147.936 72.8427C147.901 70.2665 147.855 67.4825 147.82 66.6623C147.786 65.8305 147.739 61.2327 147.693 56.4386C147.659 51.6444 147.612 47.0929 147.589 46.3304C147.566 45.568 147.543 41.7789 147.543 37.9204L147.531 30.8967L147.243 30.6194C147.092 30.4577 146.896 30.3422 146.815 30.3422C146.734 30.3537 145.162 30.5039 143.313 30.6772Z"/>
</svg>
